HIERARCHY
ROOT Hips
{
	OFFSET	0.00	0.00	0.00
	CHANNELS 6 Xposition Yposition Zposition Zrotation Xrotation Yrotation
	JOINT Chest
	{
		OFFSET	 0.000000	 4.570000	 0.000000
		CHANNELS 3 Zrotation Xrotation Yrotation
		JOINT Neck
		{
			OFFSET	 0.000000	 17.620001	 0.000000
			CHANNELS 3 Zrotation Xrotation Yrotation
			JOINT Head
			{
				OFFSET	 0.000000	 5.190000	 0.000000
				CHANNELS 3 Zrotation Xrotation Yrotation
				End Site 
				{
					OFFSET	 0.000000	 4.140008	 0.000000
				}
			}
		}
		JOINT LeftCollar
		{
			OFFSET	 1.060000	 15.330000	 01.760000
			CHANNELS 3 Zrotation Xrotation Yrotation
			JOINT LeftShoulder
			{
				OFFSET	 5.00000	 0.000000	 0.000000
				CHANNELS 3 Zrotation Xrotation Yrotation
				JOINT LeftElbow
				{
					OFFSET	 0.000000	-11.90000	 0.000000
					CHANNELS 3 Zrotation Xrotation Yrotation
					JOINT LeftWrist
					{
						OFFSET	 0.000000	-9.520000	 0.000000
						CHANNELS 3 Zrotation Xrotation Yrotation
						End Site 
						{
							OFFSET	 0.000000	-7.0	 0.000000
						}
					}
				}
			}
		}
		JOINT RightCollar
		{
			OFFSET	-1.060000	 15.330000	 01.760000
			CHANNELS 3 Zrotation Xrotation Yrotation
			JOINT RightShoulder
			{
				OFFSET	-5.000000	 0.000000	 0.000000
				CHANNELS 3 Zrotation Xrotation Yrotation
				JOINT RightElbow
				{
					OFFSET	 0.000000	-11.900000	 0.000000
					CHANNELS 3 Zrotation Xrotation Yrotation
					JOINT RightWrist
					{
						OFFSET	 0.000000	-9.520000	 0.000000
						CHANNELS 3 Zrotation Xrotation Yrotation
						End Site 
						{
							OFFSET	 0.000000	-7.0	 0.000000
						}
					}
				}
			}
		}
	}
	JOINT LeftHip
	{
		OFFSET	 3.430000	 0.000000	 0.000000
		CHANNELS 3 Zrotation Xrotation Yrotation
		JOINT LeftKnee
		{
			OFFSET	 0.000000	-19.0	 0.000000
			CHANNELS 3 Zrotation Xrotation Yrotation
			JOINT LeftAnkle
			{
				OFFSET	 0.000000	-15.00000	 0.000000
				CHANNELS 3 Zrotation Xrotation Yrotation
				End Site 
				{
					OFFSET	 0.000000	-3.0	 0.000000
				}
			}
		}
	}
	JOINT RightHip
	{
		OFFSET	-3.430000	 0.000000	 0.000000
		CHANNELS 3 Zrotation Xrotation Yrotation
		JOINT RightKnee
		{
			OFFSET	 0.000000	-19.0	 0.000000
			CHANNELS 3 Zrotation Xrotation Yrotation
			JOINT RightAnkle
			{
				OFFSET	 0.000000	-15.00000	 0.000000
				CHANNELS 3 Zrotation Xrotation Yrotation
				End Site 
				{
					OFFSET	 0.000000	-3.0	 0.000000
				}
			}
		}
	}
}
MOTION
Frames: 14
Frame Time: 0.033333333
1.056315	12.460409	37.841035	-352.760246	-261.529930	-19.007386	-2.199930	-7.273498	5.787513	-0.628149	16.016836	0.009611	349.646198	319.773411	-13.753217	-306.669994	-336.099393	-9.782229	349.276275	357.972308	-3.601305	137.582518	-44.141602	79.949691	51.166510	30.775500	35.239359	-49.170151	22.454600	21.624342	-6.199511	-11.812504	84.090363	245.352901	-319.911790	-22.123932	-211.247555	-231.477700	128.573117	4.107762	-1.229415	19.107114	-100.342593	101.139089	103.858119	-348.241420	-343.329285	-15.981254	344.157486	337.492506	-9.029445	-333.625362	-241.125724	-21.957219	6.157136	15.867738	-1.216247	
0.755786	10.671568	38.345262	-331.036666	-266.274699	-38.024389	-3.889005	-3.378393	5.436019	-1.670522	17.481293	0.109197	348.922116	320.858700	-16.336280	-306.356324	-336.170700	-11.669431	346.155890	359.016507	-5.001951	137.572505	-37.643883	76.103318	44.511915	30.446920	39.943393	-47.555529	22.653290	20.387945	1.678017	-7.058901	88.213899	241.821666	-316.408504	-16.798136	-210.185856	-229.809358	125.105744	5.935568	-0.810042	19.610844	-61.257779	104.767866	64.311359	7.261095	19.291054	-13.241064	343.743413	342.729840	-8.235291	-332.036059	-243.656747	-23.991292	6.793443	14.434344	-0.534031	
0.428606	11.729181	38.138072	-328.825324	-263.728732	-40.374757	-3.216345	-2.751096	5.645323	-3.682177	17.926454	0.307257	348.981539	323.334043	-18.045774	-306.062981	-336.130757	-10.130175	346.362681	354.139534	-4.672215	135.293025	-32.859817	68.155614	33.310459	30.889868	45.402243	-50.169603	22.661264	19.116318	5.450105	-9.772247	88.710262	242.696121	-316.926834	-17.769146	-212.010869	-229.903505	125.353994	10.443188	-9.871693	22.318916	-41.742990	109.405708	43.990433	-359.926179	-341.215286	-11.105411	345.292827	340.661604	-7.744769	-330.042327	-248.087681	-26.641413	-350.306924	-347.055808	-0.112957	
0.269470	13.279308	37.879255	-338.344367	-259.618652	-33.198998	-2.767809	-4.617318	5.698276	-3.980854	17.128102	0.280920	348.537358	324.139295	-19.657704	-306.182591	-336.095404	-8.857662	348.923373	349.629642	-3.467540	132.744149	-26.892293	57.856127	21.382105	30.402114	50.547934	-51.804357	22.579047	19.206232	4.086946	-14.577163	87.035766	245.612476	-318.282517	-22.555215	-211.740038	-229.273489	124.307841	13.350961	-16.405694	24.571217	-35.870954	109.126387	37.849533	-358.877827	-344.857580	-14.338052	345.496367	335.340750	-8.524505	-330.244664	-250.945897	-26.715299	-348.358517	-346.444670	-0.553713	
0.262882	14.514076	37.642439	-344.586504	-256.958239	-30.405075	-3.010447	-6.004470	5.568460	-3.282192	16.428915	0.187269	348.872120	323.076463	-18.721958	-307.044124	-336.042538	-7.577282	353.194728	347.026712	-1.617758	131.311695	-20.525502	48.639193	11.902704	29.145338	54.108798	-52.559640	22.422744	20.469026	0.267226	-20.750029	84.303759	246.987174	-316.960657	-24.995218	-206.278332	-228.073821	122.123233	13.667921	-17.983208	24.924838	-34.180895	105.809838	36.122230	-356.772490	-346.865191	-15.352779	344.432524	330.467028	-10.036746	-332.149276	-251.291887	-24.760219	-345.443447	-345.051886	-0.176857	
0.300655	15.224290	37.305173	-347.120313	-256.220251	-31.385562	-3.339617	-5.721004	5.477650	-2.692421	15.823232	0.121109	350.205372	321.199964	-15.738198	-308.290278	-335.983580	-5.799143	-2.303265	-13.588987	0.339092	131.556215	-14.926164	41.738236	5.681901	27.988200	55.944415	-53.657193	22.243870	21.705140	-4.128987	-27.649100	81.248677	244.781023	-312.503221	-21.475161	-197.656435	-227.424051	120.198786	12.455266	-16.354010	24.053103	-35.157804	102.417748	37.068088	-356.411747	-346.518764	-13.165142	343.697869	327.050349	-11.111048	-334.004793	-249.012270	-22.613507	16.224096	17.085255	1.101633	
0.269828	15.514553	36.766879	-345.970710	-256.245113	-35.338445	-3.236460	-4.131516	5.581606	-2.876740	14.524479	0.068186	351.791889	319.946187	-13.013311	-309.259919	-335.958800	-3.431576	1.225938	-13.194289	1.899888	133.283761	-10.181531	36.650712	1.405053	26.598214	56.824242	-56.030291	22.155948	21.485604	-7.991680	-34.951426	78.298657	237.950643	-306.867851	-9.998303	-188.349605	-227.394026	118.266894	11.703672	-14.404256	23.441842	-36.600449	101.125811	38.501212	-357.952719	-346.140672	-9.805885	344.521644	324.631287	-10.793406	-335.081176	-245.052072	-21.032800	15.274524	19.701530	2.580710	
0.120331	15.464512	36.146458	-342.708311	-255.940049	-40.178184	-3.039107	-2.423970	5.704077	357.161428	-347.803004	-0.045326	351.389071	319.635031	-14.080537	-309.566431	-335.978034	-1.604288	3.864715	-13.019872	3.080774	136.196400	-4.085064	31.798515	-3.848621	22.559342	57.603478	-58.082049	22.235475	19.705940	-12.676582	-41.402106	75.091098	-130.516237	57.145510	4.609771	-181.562966	-227.006126	116.223616	12.025100	-13.284287	23.491989	-37.045466	101.668326	38.984523	-357.604325	-347.482504	-8.484664	346.415765	322.992370	-9.450551	-336.130976	-241.317024	-19.419216	14.246250	21.996200	3.005849	
-0.080137	14.907937	35.715608	-338.964056	-255.725745	-44.167680	-2.967721	-1.798186	5.744509	357.681725	-349.983282	-0.125881	348.756088	319.394772	-18.667945	-310.491840	-335.959729	-0.983789	6.377601	-13.104055	4.210509	138.429708	2.410795	30.534729	-7.539126	17.725346	57.633244	-57.378430	22.334761	19.004475	-18.401660	-45.405146	71.761046	-143.813495	59.404640	31.311318	-167.534987	141.321746	108.255442	11.608978	-10.865568	22.993543	-43.652711	101.082555	45.759237	-356.921251	-347.998101	-9.041026	348.210411	322.959885	-7.999347	-336.131058	-239.377906	-19.105890	-346.931062	-336.231844	3.216536	
-0.247873	13.995640	35.385872	-155.256971	76.516032	132.867161	-2.783592	-2.129552	5.779431	357.226370	-350.839323	-0.189014	347.056218	319.197708	-22.611351	-311.246903	-335.918885	-1.594291	8.113775	-11.772935	5.015655	138.115779	5.042305	34.355164	-7.947348	15.462824	57.530873	-55.150593	22.377979	19.689679	-23.461511	-47.636777	68.957083	-156.661436	59.562164	55.175236	-158.429594	150.764496	103.660624	9.675211	-6.879870	21.626743	-58.494237	99.822809	60.904577	-358.354526	-347.806419	-9.870491	349.139480	323.887507	-7.182593	-334.891679	-238.097710	-20.140942	-349.399110	-335.153494	3.870858	
-0.394757	12.983775	35.069973	-148.403095	78.652987	127.758767	-2.618362	-2.056228	5.823341	355.970708	-350.178844	-0.223452	346.844346	319.283959	-24.595072	-311.287939	-335.894924	-2.864357	9.227633	-10.656205	5.542035	136.333536	3.695044	39.556049	-7.003572	14.847405	57.613955	-52.928972	22.387893	20.646258	-26.665707	-47.913950	67.413105	-164.478641	59.109548	67.164383	-153.530422	154.711348	102.085254	6.985671	-1.598570	20.017769	-78.599568	100.043513	81.528209	-358.829333	-347.840351	-12.161967	348.709889	326.051475	-7.344640	-333.534384	-237.307840	-21.373842	-350.725724	-335.326161	3.689290	
-0.538932	12.167665	34.773524	-134.826674	81.385513	116.317790	-2.714980	-0.980471	5.831023	354.902029	-348.276035	-0.109672	347.782513	319.430289	-23.983056	-310.566617	-335.906700	-4.139529	9.904005	-10.800621	5.848574	134.293359	0.390454	43.254555	-5.995091	14.312708	57.681199	-51.642827	22.414455	20.961220	-27.795582	-46.725490	67.200945	-166.593705	59.315028	68.091329	-151.039152	153.746707	101.658839	4.624637	4.025834	18.774654	-94.482714	102.318581	98.231238	-354.927683	-349.428425	-17.510655	347.179025	329.578475	-8.139387	-332.109798	-237.550421	-22.876055	-348.516403	-337.646403	1.662020	
-0.679388	11.765496	34.585279	-113.038268	83.262251	96.259882	-3.154337	0.893094	5.793323	-5.035959	13.933640	0.085550	349.105521	319.590444	-21.271295	-309.572442	-335.937709	-5.034275	10.114781	-12.192289	5.917410	132.815525	-2.151603	44.088774	-5.741113	13.070570	57.641843	-51.177025	22.486290	20.462360	-28.122596	-44.846550	67.533104	-164.291522	59.906508	63.704995	-150.115860	153.078496	101.483836	3.303173	8.563990	18.059612	-105.759794	105.831675	110.661308	-350.054289	-352.468132	-24.100209	345.424049	333.977991	-8.787943	-329.985827	-239.472218	-25.431432	-344.053449	-342.119549	-0.840247	
-0.785232	11.837153	34.650698	-103.886744	83.452758	87.477598	-3.388046	1.706987	5.775833	-3.840970	15.279039	0.148587	350.186986	319.612874	-18.195478	-309.116376	-335.953555	-5.388578	9.574572	-13.252505	5.652005	132.107371	-2.768143	42.919736	-5.635457	11.808967	57.533994	-50.172260	22.584684	19.922533	-29.717848	-43.687593	67.102331	-161.691132	59.710987	63.165123	-149.320567	157.801749	100.834988	3.485367	9.637947	17.959774	-116.779211	109.144439	122.818682	-351.852677	-353.180493	-25.379010	345.359872	336.660233	-8.399399	-325.214858	-242.973072	-31.035911	-344.617622	-344.781055	-1.245375	
